[Source_Audio]
source = 1min.wav
destination = source_file_01.wav

[Source_CUE]
tags.cue = tags.cue

[Source_Files]
cover.png = cover.png

[Result_Audio]
01-track.flac =
02-track.flac =

[Result_Tags/01-track.flac]
Album                = Album Title Tag
Album_Performer      = Disk Performer Tag
Track                = Track 01 Title Tag
Performer            = Track 01 Performer Tag
Genre                = Genre Tag
Recorded_Date        = 2011
Comment              = Comment Tag
extra/CUESHEET       = \
REM GENRE \"Genre Tag\" / \
REM DATE 2011 / \
REM DISCID 12345678 / \
REM TOTALDISCS 4 / \
REM DISCNUMBER 3 / \
TITLE \"Album Title Tag\" /  \
/ \
FILE \"01-track.flac\" WAVE /   \
TRACK 01 AUDIO /     \
INDEX 00 00:00:00 /     \
INDEX 01 00:00:33 /     \
TITLE \"Track 01 Title Tag\" /     \
PERFORMER \"Track 01 Performer Tag\" /  \
/ \
FILE \"02-track.flac\" WAVE /   \
TRACK 02 AUDIO /     \
INDEX 01 00:00:00 /     \
TITLE \"Track 02 Title Tag\" /     \
PERFORMER \"Track 02 Performer Tag\"

Track_Position       = 1
Track_Position_Total = 2
Part                 = 3
Part_Position_Total  = 4
Cover                = Yes
Cover_Type           = Cover (front)
Cover_Mime           = image/png


[Result_Tags/02-track.flac]
Album                = Album Title Tag
Album_Performer      = Disk Performer Tag
Track                = Track 02 Title Tag
Performer            = Track 02 Performer Tag
Genre                = Genre Tag
Recorded_Date        = 2011
Comment              = Comment Tag
;extra/DISCID         = 12345678
extra/CUESHEET       = \
REM GENRE \"Genre Tag\" / \
REM DATE 2011 / \
REM DISCID 12345678 / \
REM TOTALDISCS 4 / \
REM DISCNUMBER 3 / \
TITLE \"Album Title Tag\" /  \
/ \
FILE \"01-track.flac\" WAVE /   \
TRACK 01 AUDIO /     \
INDEX 00 00:00:00 /     \
INDEX 01 00:00:33 /     \
TITLE \"Track 01 Title Tag\" /     \
PERFORMER \"Track 01 Performer Tag\" /  \
/ \
FILE \"02-track.flac\" WAVE /   \
TRACK 02 AUDIO /     \
INDEX 01 00:00:00 /     \
TITLE \"Track 02 Title Tag\" /     \
PERFORMER \"Track 02 Performer Tag\"

Track_Position       = 2
Track_Position_Total = 2
Part                 = 3
Part_Position_Total  = 4
Cover                = Yes
Cover_Type           = Cover (front)
Cover_Mime           = image/png
